<svg width="1441" height="918" viewBox="0 0 1441 918" fill="none" xmlns="http://www.w3.org/2000/svg">
<path d="M5 0.5H533C535.485 0.5 537.5 2.51472 537.5 5V301C537.5 303.485 535.485 305.5 533 305.5H5C2.51472 305.5 0.5 303.485 0.5 301V5.00001C0.5 2.51473 2.51472 0.5 5 0.5Z" fill="white" stroke="#EAEAEB"/>
<circle cx="527.5" cy="23.5" r="2.5" fill="black" fill-opacity="0.25"/>
<circle cx="527.5" cy="106.5" r="2.5" fill="black" fill-opacity="0.25"/>
<circle cx="527.5" cy="192.5" r="2.5" fill="black" fill-opacity="0.25"/>
<circle cx="527.5" cy="283.5" r="2.5" fill="black" fill-opacity="0.25"/>
<circle cx="339.5" cy="23.5" r="2.5" fill="black" fill-opacity="0.25"/>
<circle cx="339.5" cy="106.5" r="2.5" fill="black" fill-opacity="0.25"/>
<circle cx="339.5" cy="192.5" r="2.5" fill="black" fill-opacity="0.25"/>
<circle cx="339.5" cy="283.5" r="2.5" fill="black" fill-opacity="0.25"/>
<circle cx="137.5" cy="23.5" r="2.5" fill="black" fill-opacity="0.25"/>
<circle cx="137.5" cy="106.5" r="2.5" fill="black" fill-opacity="0.25"/>
<circle cx="137.5" cy="192.5" r="2.5" fill="black" fill-opacity="0.25"/>
<circle cx="137.5" cy="283.5" r="2.5" fill="black" fill-opacity="0.25"/>
<path d="M336 306.5H939C941.485 306.5 943.5 308.515 943.5 311V607C943.5 609.485 941.485 611.5 939 611.5H336C333.515 611.5 331.5 609.485 331.5 607V311C331.5 308.515 333.515 306.5 336 306.5Z" fill="white" stroke="#EAEAEB"/>
<circle cx="343.5" cy="329.5" r="2.5" fill="black" fill-opacity="0.25"/>
<circle cx="343.5" cy="412.5" r="2.5" fill="black" fill-opacity="0.25"/>
<circle cx="343.5" cy="498.5" r="2.5" fill="black" fill-opacity="0.25"/>
<circle cx="343.5" cy="589.5" r="2.5" fill="black" fill-opacity="0.25"/>
<circle cx="933.5" cy="329.5" r="2.5" fill="black" fill-opacity="0.25"/>
<circle cx="933.5" cy="412.5" r="2.5" fill="black" fill-opacity="0.25"/>
<circle cx="933.5" cy="498.5" r="2.5" fill="black" fill-opacity="0.25"/>
<circle cx="933.5" cy="589.5" r="2.5" fill="black" fill-opacity="0.25"/>
<circle cx="745.5" cy="329.5" r="2.5" fill="black" fill-opacity="0.25"/>
<circle cx="745.5" cy="412.5" r="2.5" fill="black" fill-opacity="0.25"/>
<circle cx="745.5" cy="498.5" r="2.5" fill="black" fill-opacity="0.25"/>
<circle cx="745.5" cy="589.5" r="2.5" fill="black" fill-opacity="0.25"/>
<circle cx="543.5" cy="329.5" r="2.5" fill="black" fill-opacity="0.25"/>
<circle cx="543.5" cy="412.5" r="2.5" fill="black" fill-opacity="0.25"/>
<circle cx="543.5" cy="498.5" r="2.5" fill="black" fill-opacity="0.25"/>
<circle cx="543.5" cy="589.5" r="2.5" fill="black" fill-opacity="0.25"/>
<path d="M134 612.5H737C739.485 612.5 741.5 614.515 741.5 617V913C741.5 915.485 739.485 917.5 737 917.5H134C131.515 917.5 129.5 915.485 129.5 913V617C129.5 614.515 131.515 612.5 134 612.5Z" fill="white" stroke="#EAEAEB"/>
<circle cx="141.5" cy="635.5" r="2.5" fill="black" fill-opacity="0.25"/>
<circle cx="141.5" cy="718.5" r="2.5" fill="black" fill-opacity="0.25"/>
<circle cx="141.5" cy="804.5" r="2.5" fill="black" fill-opacity="0.25"/>
<circle cx="141.5" cy="895.5" r="2.5" fill="black" fill-opacity="0.25"/>
<circle cx="731.5" cy="635.5" r="2.5" fill="black" fill-opacity="0.25"/>
<circle cx="731.5" cy="718.5" r="2.5" fill="black" fill-opacity="0.25"/>
<circle cx="731.5" cy="804.5" r="2.5" fill="black" fill-opacity="0.25"/>
<circle cx="731.5" cy="895.5" r="2.5" fill="black" fill-opacity="0.25"/>
<circle cx="543.5" cy="635.5" r="2.5" fill="black" fill-opacity="0.25"/>
<circle cx="543.5" cy="718.5" r="2.5" fill="black" fill-opacity="0.25"/>
<circle cx="543.5" cy="804.5" r="2.5" fill="black" fill-opacity="0.25"/>
<circle cx="543.5" cy="895.5" r="2.5" fill="black" fill-opacity="0.25"/>
<circle cx="341.5" cy="635.5" r="2.5" fill="black" fill-opacity="0.25"/>
<circle cx="341.5" cy="718.5" r="2.5" fill="black" fill-opacity="0.25"/>
<circle cx="341.5" cy="804.5" r="2.5" fill="black" fill-opacity="0.25"/>
<circle cx="341.5" cy="895.5" r="2.5" fill="black" fill-opacity="0.25"/>
<path d="M5 612.5H124C126.485 612.5 128.5 614.515 128.5 617V913C128.5 915.485 126.485 917.5 124 917.5H5C2.51472 917.5 0.5 915.485 0.5 913V617C0.5 614.515 2.51472 612.5 5 612.5Z" fill="white" stroke="#EAEAEB"/>
<circle cx="118.5" cy="635.5" r="2.5" fill="black" fill-opacity="0.25"/>
<circle cx="118.5" cy="718.5" r="2.5" fill="black" fill-opacity="0.25"/>
<circle cx="118.5" cy="804.5" r="2.5" fill="black" fill-opacity="0.25"/>
<circle cx="118.5" cy="895.5" r="2.5" fill="black" fill-opacity="0.25"/>
<path d="M5 306.5H326C328.485 306.5 330.5 308.515 330.5 311V607C330.5 609.485 328.485 611.5 326 611.5H4.99999C2.51471 611.5 0.5 609.485 0.5 607V311C0.5 308.515 2.51472 306.5 5 306.5Z" fill="white" stroke="#EAEAEB"/>
<circle cx="320.5" cy="329.5" r="2.5" fill="black" fill-opacity="0.25"/>
<circle cx="320.5" cy="412.5" r="2.5" fill="black" fill-opacity="0.25"/>
<circle cx="320.5" cy="498.5" r="2.5" fill="black" fill-opacity="0.25"/>
<circle cx="320.5" cy="589.5" r="2.5" fill="black" fill-opacity="0.25"/>
<circle cx="132.5" cy="329.5" r="2.5" fill="black" fill-opacity="0.25"/>
<circle cx="132.5" cy="412.5" r="2.5" fill="black" fill-opacity="0.25"/>
<circle cx="132.5" cy="498.5" r="2.5" fill="black" fill-opacity="0.25"/>
<circle cx="132.5" cy="589.5" r="2.5" fill="black" fill-opacity="0.25"/>
<path d="M543 0.5H1146C1148.49 0.5 1150.5 2.51472 1150.5 5V301C1150.5 303.485 1148.49 305.5 1146 305.5H543C540.515 305.5 538.5 303.485 538.5 301V5.00001C538.5 2.51473 540.515 0.5 543 0.5Z" fill="white" stroke="#EAEAEB"/>
<circle cx="550.5" cy="23.5" r="2.5" fill="black" fill-opacity="0.25"/>
<circle cx="550.5" cy="106.5" r="2.5" fill="black" fill-opacity="0.25"/>
<circle cx="550.5" cy="192.5" r="2.5" fill="black" fill-opacity="0.25"/>
<circle cx="550.5" cy="283.5" r="2.5" fill="black" fill-opacity="0.25"/>
<circle cx="1140.5" cy="23.5" r="2.5" fill="black" fill-opacity="0.25"/>
<circle cx="1140.5" cy="106.5" r="2.5" fill="black" fill-opacity="0.25"/>
<circle cx="1140.5" cy="192.5" r="2.5" fill="black" fill-opacity="0.25"/>
<circle cx="1140.5" cy="283.5" r="2.5" fill="black" fill-opacity="0.25"/>
<circle cx="941.5" cy="23.5" r="2.5" fill="black" fill-opacity="0.25"/>
<circle cx="941.5" cy="106.5" r="2.5" fill="black" fill-opacity="0.25"/>
<circle cx="941.5" cy="192.5" r="2.5" fill="black" fill-opacity="0.25"/>
<circle cx="941.5" cy="283.5" r="2.5" fill="black" fill-opacity="0.25"/>
<circle cx="742.5" cy="23.5" r="2.5" fill="black" fill-opacity="0.25"/>
<circle cx="742.5" cy="106.5" r="2.5" fill="black" fill-opacity="0.25"/>
<circle cx="742.5" cy="192.5" r="2.5" fill="black" fill-opacity="0.25"/>
<circle cx="742.5" cy="283.5" r="2.5" fill="black" fill-opacity="0.25"/>
<path d="M747 612.5H1350C1352.49 612.5 1354.5 614.515 1354.5 617V913C1354.5 915.485 1352.49 917.5 1350 917.5H747C744.515 917.5 742.5 915.485 742.5 913V617C742.5 614.515 744.515 612.5 747 612.5Z" fill="white" stroke="#EAEAEB"/>
<circle cx="754.5" cy="635.5" r="2.5" fill="black" fill-opacity="0.25"/>
<circle cx="754.5" cy="718.5" r="2.5" fill="black" fill-opacity="0.25"/>
<circle cx="754.5" cy="804.5" r="2.5" fill="black" fill-opacity="0.25"/>
<circle cx="754.5" cy="895.5" r="2.5" fill="black" fill-opacity="0.25"/>
<circle cx="1344.5" cy="635.5" r="2.5" fill="black" fill-opacity="0.25"/>
<circle cx="1344.5" cy="718.5" r="2.5" fill="black" fill-opacity="0.25"/>
<circle cx="1344.5" cy="804.5" r="2.5" fill="black" fill-opacity="0.25"/>
<circle cx="1344.5" cy="895.5" r="2.5" fill="black" fill-opacity="0.25"/>
<circle cx="1156.5" cy="635.5" r="2.5" fill="black" fill-opacity="0.25"/>
<circle cx="1156.5" cy="718.5" r="2.5" fill="black" fill-opacity="0.25"/>
<circle cx="1156.5" cy="804.5" r="2.5" fill="black" fill-opacity="0.25"/>
<circle cx="1156.5" cy="895.5" r="2.5" fill="black" fill-opacity="0.25"/>
<circle cx="945.5" cy="635.5" r="2.5" fill="black" fill-opacity="0.25"/>
<circle cx="945.5" cy="718.5" r="2.5" fill="black" fill-opacity="0.25"/>
<circle cx="945.5" cy="804.5" r="2.5" fill="black" fill-opacity="0.25"/>
<circle cx="945.5" cy="895.5" r="2.5" fill="black" fill-opacity="0.25"/>
<path d="M949 306.5H1436C1438.49 306.5 1440.5 308.515 1440.5 311V607C1440.5 609.485 1438.49 611.5 1436 611.5H949C946.515 611.5 944.5 609.485 944.5 607V311C944.5 308.515 946.515 306.5 949 306.5Z" fill="white" stroke="#EAEAEB"/>
<circle cx="956.5" cy="329.5" r="2.5" fill="black" fill-opacity="0.25"/>
<circle cx="956.5" cy="412.5" r="2.5" fill="black" fill-opacity="0.25"/>
<circle cx="956.5" cy="498.5" r="2.5" fill="black" fill-opacity="0.25"/>
<circle cx="956.5" cy="589.5" r="2.5" fill="black" fill-opacity="0.25"/>
<circle cx="1358.5" cy="329.5" r="2.5" fill="black" fill-opacity="0.25"/>
<circle cx="1358.5" cy="412.5" r="2.5" fill="black" fill-opacity="0.25"/>
<circle cx="1358.5" cy="498.5" r="2.5" fill="black" fill-opacity="0.25"/>
<circle cx="1358.5" cy="589.5" r="2.5" fill="black" fill-opacity="0.25"/>
<circle cx="1147.5" cy="329.5" r="2.5" fill="black" fill-opacity="0.25"/>
<circle cx="1147.5" cy="412.5" r="2.5" fill="black" fill-opacity="0.25"/>
<circle cx="1147.5" cy="498.5" r="2.5" fill="black" fill-opacity="0.25"/>
<circle cx="1147.5" cy="589.5" r="2.5" fill="black" fill-opacity="0.25"/>
<path d="M1156 0.5H1436C1438.49 0.5 1440.5 2.51472 1440.5 5V301C1440.5 303.485 1438.49 305.5 1436 305.5H1156C1153.51 305.5 1151.5 303.485 1151.5 301V5.00001C1151.5 2.51473 1153.51 0.5 1156 0.5Z" fill="white" stroke="#EAEAEB"/>
<circle cx="1163.5" cy="23.5" r="2.5" fill="black" fill-opacity="0.25"/>
<circle cx="1163.5" cy="106.5" r="2.5" fill="black" fill-opacity="0.25"/>
<circle cx="1163.5" cy="192.5" r="2.5" fill="black" fill-opacity="0.25"/>
<circle cx="1163.5" cy="283.5" r="2.5" fill="black" fill-opacity="0.25"/>
<circle cx="1354.5" cy="23.5" r="2.5" fill="black" fill-opacity="0.25"/>
<circle cx="1354.5" cy="106.5" r="2.5" fill="black" fill-opacity="0.25"/>
<circle cx="1354.5" cy="192.5" r="2.5" fill="black" fill-opacity="0.25"/>
<circle cx="1354.5" cy="283.5" r="2.5" fill="black" fill-opacity="0.25"/>
<path d="M1360 612.5H1436C1438.49 612.5 1440.5 614.515 1440.5 617V913C1440.5 915.485 1438.49 917.5 1436 917.5H1360C1357.51 917.5 1355.5 915.485 1355.5 913V617C1355.5 614.515 1357.51 612.5 1360 612.5Z" fill="white" stroke="#EAEAEB"/>
<circle cx="1367.5" cy="635.5" r="2.5" fill="black" fill-opacity="0.25"/>
<circle cx="1367.5" cy="718.5" r="2.5" fill="black" fill-opacity="0.25"/>
<circle cx="1367.5" cy="804.5" r="2.5" fill="black" fill-opacity="0.25"/>
<circle cx="1367.5" cy="895.5" r="2.5" fill="black" fill-opacity="0.25"/>
</svg>
